<?xml version="1.0" standalone="no"?>
<!DOCTYPE svg PUBLIC "-//W3C//DTD SVG 20010904//EN"
 "http://www.w3.org/TR/2001/REC-SVG-20010904/DTD/svg10.dtd">
<svg version="1.0" xmlns="http://www.w3.org/2000/svg"
 width="290.000000pt" height="300.000000pt" viewBox="0 0 290.000000 300.000000"
 preserveAspectRatio="xMidYMid meet">
<metadata>
Created by potrace 1.10, written by Peter Selinger 2001-2011
</metadata>
<g transform="translate(0.000000,300.000000) scale(0.100000,-0.100000)"
fill="#000000" stroke="none">
<path d="M1164 2938 c-52 -70 -94 -151 -94 -184 0 -12 11 -41 24 -65 17 -29
22 -48 16 -59 -5 -8 -5 -31 -1 -50 4 -21 2 -50 -6 -72 -33 -97 -22 -168 27
-168 15 0 20 -7 20 -25 0 -24 -3 -25 -54 -25 -40 0 -62 6 -90 25 -20 13 -36
22 -36 19 0 -21 48 -66 92 -87 l51 -24 -49 -16 c-27 -9 -67 -17 -89 -19 l-40
-3 34 -19 c23 -12 64 -20 117 -24 l82 -5 6 -51 c8 -66 8 -232 -1 -372 l-6
-112 -36 11 c-51 15 -226 14 -291 -2 -94 -22 -214 -86 -282 -149 -141 -130
-244 -201 -377 -258 -87 -38 -134 -72 -162 -118 -24 -39 -27 -198 -5 -249 20
-46 82 -102 149 -132 l58 -27 -32 -36 c-18 -20 -46 -66 -63 -102 -27 -57 -31
-76 -31 -150 0 -73 4 -93 28 -142 56 -114 245 -249 348 -247 l44 0 -40 13
c-69 22 -180 85 -236 135 -74 66 -111 135 -117 220 -8 117 40 214 172 345 68
68 106 130 120 198 l6 27 58 -26 c221 -99 540 -185 739 -200 60 -5 74 -9 79
-25 4 -14 -1 -24 -15 -34 -24 -17 -27 -37 -7 -53 8 -7 12 -20 9 -30 -3 -12 5
-26 23 -40 50 -39 104 -23 147 44 31 49 29 61 -17 104 -14 14 -26 28 -26 33 0
7 70 13 70 6 0 -2 11 -35 24 -75 14 -39 30 -99 36 -134 l11 -62 -32 -33 c-31
-33 -35 -58 -15 -105 6 -13 -5 -18 -61 -30 -66 -14 -68 -15 -83 -57 -9 -23
-26 -49 -39 -58 -20 -15 -22 -23 -19 -76 3 -55 1 -61 -22 -73 -25 -14 -25 -14
12 -15 27 0 38 5 41 18 4 16 5 16 6 0 0 -10 5 -18 9 -18 4 0 6 16 4 36 -3 25
-7 32 -13 23 -10 -16 -10 -16 -13 26 -4 51 0 53 77 26 65 -23 86 -26 222 -26
128 1 220 9 322 31 19 3 23 -1 29 -30 3 -20 7 -47 8 -61 0 -14 6 -25 12 -25 7
0 9 10 6 25 -4 24 -3 25 22 15 42 -16 45 -11 6 8 -27 13 -35 24 -37 47 -2 28
-1 28 5 5 15 -50 72 -55 246 -24 101 18 150 18 166 -1 13 -16 60 -21 60 -7 0
10 -67 32 -94 32 -14 0 -16 6 -11 30 5 23 2 33 -16 47 -12 10 -33 28 -48 40
l-26 22 41 1 c29 0 44 -5 48 -16 3 -8 15 -14 25 -12 26 4 81 -50 81 -79 0 -27
-10 -29 -51 -7 -17 8 -33 13 -36 10 -3 -2 20 -16 50 -31 53 -25 55 -27 47 -55
-5 -16 -11 -34 -15 -40 -3 -5 0 -10 7 -10 20 0 43 69 29 83 -6 6 -11 28 -11
48 0 20 -7 42 -15 49 -22 18 -19 23 25 43 67 31 78 75 37 154 -25 48 -77 57
-77 13 0 -37 -76 -33 -105 7 -6 8 -23 13 -39 11 -38 -4 -42 13 -11 50 14 16
25 42 25 56 0 27 9 33 26 16 7 -7 21 -7 40 -1 16 5 50 12 76 16 32 4 51 12 58
25 5 10 20 20 32 22 15 2 24 11 26 25 2 13 6 23 10 24 33 4 51 13 87 49 49 49
94 132 102 188 4 32 1 44 -16 61 -20 20 -23 20 -59 6 -20 -9 -48 -24 -62 -35
-54 -43 -91 -52 -144 -38 -42 11 -51 18 -57 43 -6 21 -4 34 8 47 10 12 14 27
10 48 -7 34 2 39 21 10 16 -26 34 -25 60 3 26 28 27 38 6 79 -13 25 -14 36 -5
50 9 14 7 22 -8 37 -20 20 -20 20 4 63 26 46 59 175 71 271 6 55 15 69 29 46
9 -13 85 -69 95 -69 4 0 -3 28 -15 63 -12 34 -26 78 -30 97 l-7 35 41 -39 c41
-40 61 -44 43 -9 -9 17 -52 172 -52 187 0 3 22 6 49 6 52 0 98 28 122 72 10
18 8 19 -13 12 -59 -19 -146 5 -168 47 -9 17 -6 26 19 55 33 36 77 163 67 190
-3 8 1 32 10 52 27 61 29 200 5 337 -11 66 -27 178 -36 250 -14 117 -25 158
-40 144 -5 -6 14 -154 51 -401 25 -160 26 -205 8 -301 -7 -36 -24 -25 -24 17
0 18 -9 59 -20 91 -11 32 -20 77 -20 99 -1 53 -38 128 -71 143 -47 22 -61 46
-48 81 16 46 -4 94 -57 141 -42 37 -172 110 -221 125 -21 7 -22 5 -17 -22 14
-70 -54 -240 -108 -268 -95 -49 -392 47 -521 168 -36 34 -39 40 -35 82 2 32
-1 46 -9 46 -7 0 -13 -6 -13 -14 0 -8 -6 -17 -12 -19 -10 -4 -10 -6 0 -6 19
-1 14 -56 -8 -76 -11 -10 -20 -25 -20 -34 -1 -9 -14 9 -30 40 -36 69 -52 83
-98 82 -36 -1 -36 -1 -12 13 14 7 19 13 11 14 -26 0 -80 -44 -97 -79 -9 -19
-20 -62 -24 -97 -9 -74 -49 -139 -113 -185 -23 -17 -48 -42 -55 -55 -7 -14
-19 -23 -25 -21 -18 6 -20 33 -3 50 13 13 13 19 -7 58 l-22 44 111 110 c108
107 165 175 146 175 -4 0 -32 -29 -61 -65 -54 -66 -198 -205 -213 -205 -15 0
-8 40 13 83 12 23 46 75 75 115 34 44 49 72 40 72 -8 0 -36 -28 -62 -62z
m1200 6 c-7 17 -5 17 24 2 17 -9 34 -21 38 -27 5 -8 8 -8 13 0 10 15 127 -71
146 -108 19 -37 21 -105 3 -98 -7 2 -12 15 -10 30 5 40 -14 67 -47 67 -34 0
-43 -10 -70 -76 -11 -29 -38 -81 -60 -118 -52 -84 -59 -111 -36 -136 23 -26
46 -25 79 1 35 27 28 34 -13 13 -73 -37 -81 19 -16 119 24 38 51 91 60 118 21
61 58 86 81 54 16 -22 19 -55 4 -55 -5 0 -10 9 -10 20 0 13 -7 20 -18 20 -13
0 -23 -15 -36 -50 -10 -27 -37 -80 -61 -117 -46 -72 -46 -98 0 -73 22 12 27
11 45 -5 19 -17 19 -20 4 -44 -45 -69 -97 -121 -132 -131 -43 -11 -47 -9 -217
94 -115 70 -302 164 -444 223 -117 48 -126 56 -162 131 -67 143 -121 152 -139
23 -5 -34 -19 -78 -31 -97 l-22 -37 24 16 c27 18 44 58 54 129 3 27 12 49 21
52 8 3 12 1 9 -4 -3 -6 1 -7 9 -4 23 9 31 -23 12 -45 -9 -10 -23 -40 -31 -68
-13 -45 -27 -61 -120 -142 -111 -97 -159 -163 -159 -218 0 -25 -4 -33 -18 -33
-10 0 -22 10 -27 22 -18 50 24 121 147 251 79 84 102 125 102 181 0 146 134
186 187 57 21 -50 64 -106 72 -92 4 6 41 -13 96 -51 102 -69 246 -141 320
-159 28 -6 65 -23 82 -36 44 -32 92 -51 114 -46 19 5 49 59 49 88 0 9 13 35
29 58 36 54 71 122 71 141 0 8 10 18 23 22 12 3 30 13 40 22 19 17 23 67 5 78
-8 5 -9 0 -5 -15 10 -41 -39 -65 -84 -41 -25 14 -27 -11 -3 -35 16 -15 15 -21
-12 -77 -16 -34 -38 -74 -50 -89 l-21 -29 -11 25 c-6 14 -16 25 -22 25 -14 0
-12 -11 5 -34 8 -11 15 -35 15 -53 0 -41 -34 -62 -69 -44 -21 12 -81 86 -81
101 0 4 24 5 53 4 l52 -4 -35 14 c-32 13 -33 15 -10 15 14 1 36 8 48 17 12 8
26 13 32 9 10 -6 35 33 26 42 -3 3 2 19 10 35 24 47 44 119 44 163 l0 40 20
-25 c14 -17 18 -19 14 -6z m-572 -168 c77 -43 187 -83 278 -101 36 -7 57 -14
48 -14 -14 -1 -18 -10 -18 -37 l0 -36 -44 6 c-95 15 -254 94 -343 171 -24 20
-43 43 -43 51 0 10 -7 13 -23 9 -15 -4 -28 0 -37 11 -13 14 -11 19 9 35 l24
19 41 -38 c23 -22 72 -55 108 -76z m-277 9 c34 -70 63 -91 210 -153 147 -61
326 -154 462 -239 108 -67 148 -77 201 -49 29 16 75 70 94 110 11 26 19 31 31
19 4 -3 -1 -15 -10 -26 -17 -18 -17 -20 5 -55 12 -20 29 -53 37 -72 9 -20 25
-40 38 -45 42 -19 72 -199 47 -285 -6 -19 -14 -120 -20 -225 -8 -166 -19 -256
-46 -382 -6 -31 -7 -32 -30 -16 -53 34 -119 -28 -95 -90 6 -15 15 -27 21 -27
5 0 10 -4 10 -10 0 -16 -26 -11 -44 9 -15 17 -16 30 -5 151 16 181 7 408 -21
540 -36 170 -88 254 -184 299 -37 17 -72 20 -336 25 -162 3 -305 8 -317 11
-16 5 -22 16 -25 46 -2 21 0 39 5 39 4 0 5 5 2 10 -7 12 -3 12 19 4 9 -3 16
-10 16 -15 0 -4 -7 -5 -17 -2 -11 4 -14 3 -9 -5 9 -15 33 -15 42 -1 4 7 -1 16
-10 21 -16 9 -16 11 0 29 24 26 6 46 -26 29 -17 -9 -29 -9 -51 1 -38 15 -64
-3 -34 -24 12 -10 14 -16 7 -21 -7 -4 -12 -14 -12 -23 0 -11 7 -14 24 -11 21
4 25 1 29 -31 2 -20 3 -37 2 -39 -5 -7 -182 51 -206 68 -48 35 -129 16 -129
-31 0 -10 -5 -19 -11 -19 -14 0 -3 124 14 155 19 37 102 128 157 172 57 47
100 105 100 136 0 16 29 77 37 77 1 0 14 -25 28 -55z m1080 -106 c43 -47 42
-59 -8 -154 -31 -59 -48 -72 -53 -40 -4 27 -35 67 -55 72 -11 3 -18 8 -16 12
2 3 18 39 37 79 19 39 39 72 46 72 6 0 28 -18 49 -41z m94 -94 c39 -77 34
-128 -20 -217 -54 -87 -81 -99 -104 -46 -8 18 -23 47 -35 63 -29 44 -25 86 6
55 8 -8 14 -7 21 2 20 23 84 159 86 179 2 31 20 17 46 -36z m-534 -34 c17 -19
23 -30 15 -26 -29 15 -60 49 -60 64 0 8 3 11 8 6 4 -6 21 -25 37 -44z m-575
-135 c0 -2 -21 -16 -46 -30 -25 -14 -44 -20 -42 -13 6 18 88 58 88 43z m1170
-93 c27 -114 23 -172 -16 -243 -43 -79 -99 -121 -74 -56 5 15 9 51 9 79 -2 36
-3 42 -7 22 -3 -23 -9 -9 -23 60 -10 49 -15 92 -10 95 4 3 27 35 50 73 24 37
44 67 46 67 2 0 13 -43 25 -97z m-1402 -10 c36 -8 35 -20 -3 -62 -58 -63 -173
-99 -270 -83 l-50 9 40 11 c54 16 177 84 183 102 3 8 -8 4 -28 -10 -37 -26
-118 -38 -146 -21 -16 8 -10 10 31 11 52 0 121 26 143 53 10 12 19 13 45 5 18
-5 42 -12 55 -15z m162 -45 c30 -6 78 -13 105 -17 48 -6 49 -7 29 -21 -29 -21
-42 -49 -49 -104 -3 -26 -10 -58 -17 -69 -21 -42 -60 -87 -69 -81 -5 3 -9 1
-9 -4 0 -31 -137 -15 -192 21 -32 22 -32 23 -33 104 -1 67 2 83 15 86 14 4 15
-3 8 -57 -10 -70 -6 -86 21 -86 11 0 40 -9 66 -20 52 -22 137 -28 117 -8 -6 6
-19 12 -29 13 -47 5 -93 18 -103 30 -6 7 -22 10 -37 7 -24 -5 -25 -3 -19 24 4
16 10 48 13 72 3 28 10 42 19 42 9 0 14 8 12 18 -3 14 5 17 47 17 28 0 73 -3
100 -7 37 -6 45 -5 32 3 -10 6 -48 15 -85 20 -73 10 -77 12 -67 29 5 8 19 10
39 5 17 -3 56 -11 86 -17z m714 -58 c32 -22 96 -102 96 -120 0 -16 -69 -75
-108 -92 -85 -38 -231 -21 -289 34 -20 19 -50 85 -41 92 1 2 29 1 61 -1 39 -4
57 -10 57 -19 0 -8 13 -28 28 -45 53 -59 171 -57 232 5 22 23 30 40 26 53 -5
17 -17 18 -138 17 -139 -2 -256 8 -321 27 -53 14 -60 2 -10 -17 34 -14 42 -22
48 -51 9 -48 70 -106 131 -124 110 -32 233 -5 299 65 l32 35 11 -37 c6 -20 17
-76 23 -123 l13 -87 -30 -34 -29 -34 -78 68 c-103 90 -119 100 -151 92 -28 -7
-86 -66 -86 -89 0 -15 48 -65 118 -123 24 -19 39 -38 35 -42 -22 -20 -155 -44
-243 -43 -204 2 -472 109 -615 246 -49 47 -61 80 -45 121 l10 28 35 -31 c43
-38 71 -46 156 -46 50 0 72 5 86 18 34 30 73 114 83 174 17 102 35 108 337
108 228 -1 231 -1 267 -25z m-990 -72 c10 -37 7 -115 -6 -162 -9 -35 -9 -50 0
-68 10 -17 11 -55 4 -151 -11 -165 -5 -288 17 -355 17 -50 17 -52 0 -36 -25
23 -52 144 -53 243 -2 141 17 551 24 551 4 0 10 -10 14 -22z m902 -30 c10 -16
-33 -48 -66 -48 -24 0 -60 33 -60 55 0 11 119 5 126 -7z m114 -18 c13 -8 12
-11 -5 -24 -11 -8 -23 -12 -27 -10 -4 2 -9 0 -13 -6 -3 -5 -27 -10 -51 -10
-60 0 -54 23 7 30 28 3 43 10 42 18 -3 14 25 16 47 2z m129 -115 c36 -145 49
-540 20 -610 -5 -11 -6 47 -3 135 7 166 -8 382 -32 488 -15 67 -16 78 -10 71
2 -2 13 -40 25 -84z m301 -33 c0 -32 20 -139 46 -242 l6 -25 -21 25 c-12 14
-30 41 -41 60 -22 40 -24 32 -10 -42 17 -87 33 -142 43 -155 18 -24 -8 -12
-45 20 l-37 32 7 173 c6 137 10 175 22 182 25 16 30 11 30 -28z m97 -41 c23
-5 44 -6 48 -3 3 3 5 0 5 -7 0 -26 -99 -42 -117 -18 -6 6 -13 30 -17 52 l-7
40 23 -27 c14 -17 39 -31 65 -37z m-631 -23 c62 -48 164 -141 159 -146 -3 -3
-21 9 -39 27 -41 40 -66 38 -116 -9 l-32 -30 -49 47 c-27 25 -49 53 -49 60 0
21 55 73 78 73 11 0 32 -10 48 -22z m-857 -147 c21 -38 25 -14 6 34 -9 26 -15
49 -12 52 3 3 21 -9 39 -26 35 -33 60 -43 37 -14 -13 15 -12 15 6 5 46 -26 46
-24 30 -98 -8 -38 -17 -116 -21 -174 -9 -145 -37 -205 -79 -170 -34 28 -48
118 -47 290 1 91 5 179 9 195 6 28 7 26 14 -21 3 -28 12 -61 18 -73z m1094
-149 c-4 -8 -63 53 -69 70 -3 11 -8 18 -10 15 -4 -4 10 -78 22 -119 4 -14 0
-18 -17 -18 -23 0 -79 54 -79 76 0 7 -5 16 -11 20 -8 4 -9 -3 -4 -25 7 -35 0
-52 -19 -45 -7 3 -11 16 -8 34 3 25 0 30 -22 36 -34 8 -26 16 20 20 42 3 113
48 130 82 6 13 22 34 35 48 l24 26 5 -109 c3 -59 4 -109 3 -111z m-113 157
l24 -21 -24 -19 c-41 -32 -66 -34 -99 -8 -17 13 -30 27 -30 30 -1 3 15 18 36
32 39 28 45 27 93 -14z m-760 -47 c73 -37 75 -40 82 -83 4 -24 25 -80 47 -124
l40 -80 -32 -33 c-27 -28 -30 -35 -19 -52 10 -17 9 -25 -4 -46 -19 -28 -34
-18 -34 22 0 31 -39 77 -61 71 -12 -3 -24 4 -35 21 -9 14 -36 44 -59 67 l-43
41 14 104 c12 97 19 130 26 130 2 0 37 -17 78 -38z m303 -88 c71 -7 86 -18 38
-29 -16 -3 -35 -13 -42 -21 -7 -8 -20 -12 -30 -9 -21 7 -25 -5 -9 -21 11 -11
-5 -74 -19 -74 -8 0 -86 127 -101 164 -16 44 -21 26 -9 -38 6 -32 8 -60 5 -63
-6 -6 -36 94 -36 122 l0 22 68 -23 c37 -13 97 -26 135 -30z m357 -26 l0 -30
-65 4 c-56 3 -63 1 -50 -11 9 -9 34 -15 65 -15 41 0 50 -3 48 -15 -3 -13 -21
-16 -98 -19 -83 -2 -100 1 -134 20 -41 24 -64 57 -31 44 15 -5 16 -4 5 9 -17
20 -5 32 15 15 12 -10 39 -11 106 -7 102 8 155 26 79 27 -29 1 -39 4 -27 9 10
4 34 5 53 3 30 -4 34 -8 34 -34z m-1024 7 c18 -5 24 -22 38 -93 22 -111 43
-152 89 -175 35 -18 39 -18 63 -2 30 19 54 71 54 115 0 38 9 34 60 -32 l40
-50 -20 -25 c-13 -17 -20 -41 -20 -68 l0 -42 -54 4 c-49 4 -57 1 -90 -28 -28
-24 -36 -38 -36 -66 0 -39 15 -72 42 -91 21 -16 23 -59 3 -86 -13 -17 -12 -22
2 -46 15 -26 15 -32 -7 -100 l-23 -73 -79 7 c-192 16 -489 96 -704 189 -105
45 -175 61 -259 55 -61 -4 -70 -7 -96 -36 -34 -38 -36 -56 -9 -99 21 -36 106
-102 130 -103 8 0 0 10 -17 21 -18 12 -33 24 -33 28 0 14 35 40 74 56 21 9 36
18 33 21 -8 8 -80 -25 -104 -48 -22 -21 -23 -21 -43 -3 -28 25 -26 32 22 56
41 21 133 28 161 13 9 -5 9 -4 0 6 -23 25 -97 24 -157 -3 -59 -27 -72 -23 -62
19 12 46 78 53 181 18 36 -12 38 -12 20 1 -11 9 -37 18 -57 22 -61 9 -59 26 1
18 97 -13 106 -18 103 -54 -1 -18 -12 -51 -23 -73 -23 -46 -106 -138 -123
-138 -25 0 -123 53 -154 83 -74 71 -102 188 -64 264 29 55 69 87 177 137 129
60 215 118 323 218 160 148 294 202 487 194 61 -3 119 -8 131 -11z m1232 -71
l-4 -39 -16 35 c-8 19 -18 49 -22 65 l-7 30 26 -26 c21 -21 26 -33 23 -65z
m-513 20 c-16 -25 -16 -26 2 -20 20 6 68 -28 59 -43 -3 -4 18 -40 46 -80 37
-56 46 -76 37 -82 -8 -5 -17 -3 -21 4 -5 8 -8 6 -8 -7 0 -21 -59 66 -121 176
-37 67 -37 75 5 77 17 1 18 0 1 -25z m396 -1 c22 -25 22 -26 1 -9 -28 24 -39
16 -12 -9 18 -16 24 -17 41 -7 23 15 25 5 2 -20 -21 -23 -35 -23 -51 2 -9 15
-19 19 -40 15 l-27 -6 25 16 c23 15 24 15 3 10 -14 -4 -23 -2 -23 4 0 6 9 11
19 11 11 0 23 5 26 10 8 14 8 14 36 -17z m-558 -54 c20 -37 25 -54 18 -67 -8
-14 -13 -9 -29 28 -43 101 -37 125 11 39z m137 1 c7 -17 13 -41 13 -55 0 -25
12 -34 19 -15 4 13 80 -114 91 -152 4 -16 18 -35 32 -44 13 -8 41 -36 61 -61
l37 -45 -31 16 c-37 19 -83 21 -101 4 -11 -11 -14 -10 -18 0 -3 7 -11 19 -19
27 -8 7 -18 24 -23 37 -9 21 -10 21 -10 3 -1 -11 6 -31 15 -43 8 -12 11 -22 6
-22 -19 0 -102 32 -102 40 0 12 30 21 43 13 7 -4 8 0 3 13 -5 10 -10 28 -12
39 -4 20 -4 20 5 0 11 -22 12 -21 17 17 1 15 -1 30 -7 33 -5 4 -2 13 6 22 12
12 13 18 4 29 -9 11 -9 18 -1 26 15 15 16 32 2 23 -6 -3 -19 -3 -31 0 -16 5
-18 10 -8 21 8 10 9 14 0 14 -16 0 -27 -33 -13 -38 17 -5 15 -22 -3 -22 -18 0
-20 -36 -2 -43 8 -3 4 -11 -11 -22 -17 -12 -21 -20 -13 -28 15 -15 14 -40 -1
-31 -9 5 -9 2 1 -9 7 -9 20 -17 28 -17 8 0 11 -5 8 -10 -4 -7 -12 -7 -25 0
-25 13 -33 13 -23 -2 4 -7 6 -22 5 -33 -2 -17 -1 -18 8 -5 9 13 10 12 7 -5 -2
-11 -9 -19 -15 -18 -7 2 -12 -5 -12 -14 0 -14 -4 -13 -24 6 -23 22 -24 25 -11
61 7 21 17 60 21 87 3 26 18 79 31 116 28 79 25 101 -5 34 -17 -39 -45 -67
-66 -67 -3 0 12 28 34 62 22 33 40 67 40 75 0 26 37 13 50 -17z m538 -46 c-9
-8 -60 55 -53 66 5 7 16 -2 32 -25 14 -20 23 -38 21 -41z m-334 36 c77 0 97
-6 89 -28 -6 -13 -8 -13 -15 4 -5 12 -7 -3 -5 -39 2 -36 -1 -61 -9 -68 -6 -5
-10 -20 -7 -32 4 -21 4 -21 -17 3 -12 14 -26 25 -30 25 -16 0 -52 56 -46 71 3
8 2 13 -3 10 -5 -3 -21 13 -35 35 -24 35 -24 39 -7 30 11 -6 49 -11 85 -11z
m216 -15 c34 -18 40 -18 40 -4 0 5 -6 7 -12 3 -7 -4 -6 1 3 10 15 16 18 15 52
-19 21 -21 34 -41 31 -46 -3 -5 -9 -7 -14 -4 -5 3 -12 1 -15 -5 -5 -8 -11 -7
-21 1 -12 10 -13 9 -8 -5 10 -25 -16 -19 -48 11 l-28 27 -1 -50 -1 -49 -10 35
c-6 19 -12 41 -14 49 -3 10 -8 11 -15 4 -6 -6 -4 -22 6 -47 9 -21 14 -43 12
-49 -3 -7 -9 -1 -14 12 -5 14 -12 20 -15 15 -7 -11 8 -54 19 -54 5 0 17 -16
27 -34 10 -19 28 -36 39 -38 11 -2 21 -11 23 -21 3 -24 32 -67 44 -67 5 0 7
-7 3 -16 -4 -11 -8 -12 -13 -4 -5 8 -9 7 -13 -4 -4 -10 2 -25 13 -36 28 -28
25 -45 -16 -96 -29 -35 -39 -42 -50 -33 -16 13 -19 69 -5 69 17 0 23 -20 11
-35 -25 -31 10 -15 39 17 27 30 27 33 12 60 -19 34 -25 35 -45 6 -9 -12 -18
-19 -22 -16 -8 9 15 50 41 70 21 17 21 17 -63 103 -46 48 -86 84 -89 82 -5 -5
83 -105 126 -143 19 -17 22 -23 11 -24 -9 0 -21 5 -28 12 -9 9 -12 9 -12 0 0
-6 8 -16 18 -21 9 -6 14 -11 10 -12 -5 -1 -11 -2 -15 -3 -5 -1 -23 -7 -40 -15
-18 -7 -39 -11 -47 -8 -9 4 -22 39 -33 86 -10 45 -20 81 -23 81 -9 0 1 80 11
86 5 3 9 14 9 24 0 10 4 20 10 22 5 2 10 25 11 51 l2 49 34 -4 c18 -2 33 1 34
7 0 5 3 4 6 -3 3 -7 18 -19 33 -27z m75 -92 c45 22 45 22 45 -8 0 -18 -9 -28
-36 -41 -36 -17 -37 -17 -55 7 -20 26 -25 15 -9 -25 5 -15 6 -28 0 -31 -5 -3
-7 -13 -4 -23 4 -12 -1 -10 -15 7 -21 23 -27 52 -14 65 4 4 6 24 4 44 l-3 37
26 -24 c26 -24 27 -24 61 -8z m-635 -5 c18 -22 18 -23 39 -4 16 14 21 16 21 5
0 -23 -13 -37 -44 -49 -23 -8 -34 -7 -53 5 -23 15 -23 16 -6 40 22 30 21 30
43 3z m845 -18 c8 -13 -4 -50 -16 -50 -6 0 -9 10 -7 22 4 33 -27 35 -48 4 -14
-22 -14 -29 -3 -43 12 -14 12 -16 -1 -11 -8 2 -16 18 -18 35 -6 56 65 89 93
43z m-998 -2 c4 -7 17 -42 30 -78 21 -61 22 -65 5 -83 -24 -27 -56 -43 -50
-26 2 7 -9 20 -26 29 -46 22 -49 102 -5 148 23 25 34 27 46 10z m516 -49 c10
-11 17 -22 15 -23 -69 -49 -84 -56 -75 -31 4 8 1 17 -5 21 -7 5 -8 2 -3 -6 5
-9 4 -11 -4 -6 -12 8 -8 19 17 49 20 22 34 22 55 -4z m324 -13 l11 -34 -46
-12 c-47 -12 -68 -2 -57 28 3 8 5 18 5 23 0 4 6 6 13 3 7 -2 21 2 32 10 28 21
30 20 42 -18z m126 3 c6 -22 -10 -79 -22 -79 -4 0 -7 24 -7 54 0 37 4 52 12
49 7 -2 14 -13 17 -24z m-791 -4 c4 -5 8 -20 8 -33 0 -22 -1 -22 -30 -7 -16 9
-30 12 -30 7 0 -5 11 -15 25 -22 14 -7 25 -20 25 -27 0 -11 -7 -9 -28 6 -46
33 -58 51 -41 62 8 5 10 9 6 9 -5 0 -6 4 -2 9 7 12 58 9 67 -4z m-12 -121 c0
-13 53 -64 67 -64 15 0 11 -42 -4 -47 -6 -2 -28 10 -48 28 -29 26 -35 38 -33
63 3 28 -1 32 -32 41 -30 9 -35 16 -38 43 l-3 33 45 -45 c25 -24 46 -48 46
-52z m384 64 c8 -13 18 -43 21 -68 l6 -45 -40 45 c-45 49 -47 54 -28 75 17 20
24 18 41 -7z m336 3 c0 -13 -97 -39 -111 -30 -10 6 -9 9 6 14 11 4 34 12 50
19 29 13 55 11 55 -3z m-1016 -46 c13 -14 30 -25 37 -25 9 1 5 8 -10 21 -13
11 -21 22 -18 25 8 9 47 -6 47 -18 0 -21 -32 -118 -41 -123 -5 -4 -9 -16 -9
-28 1 -17 7 -11 25 23 13 25 24 52 25 61 0 20 26 56 35 48 3 -4 7 -16 8 -27 0
-11 5 -18 11 -15 13 8 0 -50 -20 -93 -9 -19 -20 -34 -25 -34 -5 0 -3 10 5 23
8 12 17 38 20 57 5 28 2 25 -14 -17 -12 -29 -31 -61 -44 -70 -12 -10 -26 -31
-30 -47 -5 -20 -10 -26 -18 -18 -15 15 -1 47 25 60 24 12 27 10 -33 16 -8 0
-15 8 -15 16 0 8 6 14 13 12 10 -2 12 4 7 20 -4 16 -3 19 3 9 6 -8 12 -9 16
-3 3 5 -3 17 -14 27 -15 13 -20 14 -20 5 0 -11 -3 -11 -11 -3 -9 9 -8 16 5 28
9 9 16 21 16 27 0 6 8 4 18 -5 11 -11 22 -13 32 -7 11 7 8 11 -15 21 -56 22
-85 9 -85 -37 0 -12 7 -27 15 -34 16 -14 20 -40 6 -40 -5 0 -23 14 -41 30 -28
26 -32 35 -26 63 7 36 47 77 77 77 11 0 30 -11 43 -25z m1031 16 c3 -5 1 -12
-5 -16 -16 -10 -12 -24 15 -47 14 -12 25 -29 25 -38 0 -16 -66 -88 -74 -79 -2
2 -16 24 -31 48 -19 31 -24 46 -15 51 9 6 8 15 -4 39 -16 30 -16 31 6 31 13 0
30 5 38 10 19 12 37 13 45 1z m51 -10 c-3 -5 2 -8 11 -7 9 0 18 -5 21 -13 3
-10 0 -12 -12 -8 -14 6 -13 1 4 -33 25 -49 27 -78 5 -60 -17 14 -21 0 -4 -17
7 -7 7 -13 1 -17 -5 -3 -15 1 -22 9 -10 12 -10 18 0 30 9 11 9 22 -1 50 -11
28 -17 34 -34 30 -20 -6 -20 -6 -1 9 11 9 14 16 7 16 -7 0 -9 5 -6 10 3 6 13
10 21 10 8 0 13 -4 10 -9z m-831 -45 c10 4 15 0 15 -15 0 -11 7 -39 16 -61 13
-33 19 -38 30 -29 24 19 27 2 5 -20 -36 -36 -90 -23 -109 26 -15 37 -31 131
-24 138 3 3 16 -6 29 -19 13 -15 29 -23 38 -20z m223 -31 c28 -9 52 -18 52
-19 0 -8 -31 -76 -34 -76 -2 0 -24 9 -49 20 -48 21 -72 44 -42 38 11 -2 19 4
21 15 2 14 -2 18 -17 14 -11 -3 -19 0 -19 7 0 17 12 27 24 22 6 -3 35 -12 64
-21z m189 -2 c38 -15 71 -31 75 -37 4 -6 22 -4 49 7 44 17 66 14 38 -6 -50
-38 -76 -67 -93 -105 -27 -59 -45 -67 -120 -52 -86 16 -110 33 -103 75 8 51
47 133 65 138 10 3 18 5 19 6 2 0 33 -11 70 -26z m-520 -20 l-6 -38 19 25 c17
21 20 22 20 7 0 -11 -14 -32 -31 -48 -35 -32 -54 -38 -39 -11 5 9 14 36 20 60
13 52 25 56 17 5z m43 -42 c0 -14 -47 -67 -54 -61 -5 5 41 70 50 70 2 0 4 -4
4 -9z m632 -38 c-11 -21 -5 -39 26 -78 20 -25 25 -27 47 -17 14 6 25 8 25 4 0
-4 14 -15 31 -25 30 -17 31 -17 27 1 -5 16 18 42 37 42 11 0 3 -66 -10 -84 -8
-11 -15 -30 -15 -42 0 -13 -7 -30 -16 -38 -18 -19 -65 -21 -82 -4 -9 9 -12 9
-12 -2 -1 -10 -7 -8 -19 8 -11 12 -24 22 -31 22 -6 0 -9 8 -6 18 4 12 -3 21
-24 31 -39 17 -64 64 -56 105 8 37 79 115 84 92 2 -8 -1 -23 -6 -33z m-382 10
c43 -22 49 -28 34 -34 -11 -4 -27 -8 -36 -8 -22 -1 -72 45 -63 58 8 14 5 15
65 -16z m465 -3 c-10 -11 -19 -19 -19 -18 -1 2 -8 11 -15 21 -12 15 -10 17 19
17 32 0 33 0 15 -20z m-942 -53 c-3 -4 -1 -16 3 -25 4 -9 8 -21 9 -27 9 -62
75 -102 150 -91 l46 6 -23 -30 c-24 -30 -54 -43 -122 -55 -50 -8 -56 1 -56 88
0 42 -4 67 -11 67 -6 0 -8 7 -5 16 5 13 4 14 -7 6 -16 -14 -27 -6 -27 20 0 10
7 18 16 18 12 0 14 3 6 13 -6 7 -8 23 -5 36 6 23 6 23 18 -5 7 -16 10 -33 8
-37z m402 35 c-3 -3 0 -12 7 -19 9 -11 9 -16 -1 -23 -8 -4 -11 -13 -7 -19 9
-15 -26 -79 -68 -124 -24 -26 -36 -48 -36 -67 0 -31 -22 -50 -60 -50 -13 0
-26 11 -37 34 -24 50 -13 66 41 62 25 -2 45 0 44 3 -3 16 25 65 47 83 15 12
24 29 24 46 -1 15 5 44 12 64 10 28 16 34 26 26 8 -6 11 -13 8 -16z m675 -1
c0 -19 -37 -51 -74 -65 -11 -4 -29 0 -43 10 l-25 16 22 23 c21 22 24 23 46 8
27 -17 54 -11 54 12 0 8 5 15 10 15 6 0 10 -9 10 -19z m-950 -30 c0 -5 -7 -14
-15 -21 -8 -7 -12 -16 -9 -21 9 -15 21 -10 27 11 12 48 147 56 147 9 0 -15 -5
-18 -24 -13 -14 3 -27 1 -31 -6 -5 -9 -1 -10 14 -5 17 5 11 -5 -23 -40 -43
-46 -47 -47 -88 -42 -23 3 -48 13 -55 23 -28 39 -3 114 38 114 10 0 19 -4 19
-9z m410 -21 c6 -12 23 -25 36 -31 30 -11 29 -45 -1 -43 -53 4 -155 30 -155
40 0 7 17 17 38 23 l37 10 -37 -2 c-44 -3 -52 10 -10 16 63 10 81 7 92 -13z
m-206 -24 c20 -33 -90 -104 -118 -76 -8 8 -3 18 19 35 17 13 39 33 50 44 23
23 34 23 49 -3z m1060 -2 c16 -43 -60 -195 -118 -237 -25 -17 -29 -18 -23 -4
3 9 2 29 -4 44 -9 25 -6 31 41 73 50 43 51 46 39 73 -7 16 -20 27 -33 28 -15
0 -10 6 19 19 50 23 71 24 79 4z m-1399 -71 c-4 -21 -8 -44 -8 -50 0 -7 -4
-13 -8 -13 -10 0 -30 -60 -23 -71 3 -5 0 -9 -6 -9 -16 0 -24 28 -12 43 5 6 15
37 22 67 15 64 17 70 32 70 7 0 8 -13 3 -37z m535 16 c17 -6 12 -7 -17 -3 -28
4 -43 2 -43 -5 0 -6 10 -11 21 -11 31 0 99 -22 99 -32 0 -4 -40 -8 -88 -8
l-88 0 -1 41 -2 40 47 -7 c26 -4 58 -11 72 -15z m262 -19 l16 -35 -26 -6 c-15
-4 -60 -7 -99 -8 -66 -1 -73 1 -73 18 0 11 -2 26 -5 34 -5 10 8 17 47 24 29 6
69 10 88 9 29 -2 38 -8 52 -36z m506 28 c-7 -21 -111 -69 -123 -56 -7 7 -7 12
0 14 6 3 33 15 60 28 58 28 68 30 63 14z m-183 -18 c10 -16 -17 -68 -42 -79
-31 -14 -34 -12 -26 18 3 13 11 20 19 17 8 -3 14 -1 14 3 0 5 -7 11 -15 15
-13 4 -13 9 -4 24 12 19 43 19 54 2z m40 -52 c4 -29 1 -82 -5 -118 -7 -36 -12
-75 -12 -87 0 -18 -7 -24 -37 -28 -20 -3 -52 -10 -71 -15 -28 -8 -37 -7 -46 5
-6 8 -21 15 -32 15 -14 0 -20 5 -16 14 7 19 31 14 47 -9 20 -26 33 -12 52 53
9 31 21 62 25 67 4 6 10 19 12 30 1 11 12 28 23 37 19 15 20 15 27 0 4 -9 7 7
7 36 1 28 5 52 10 52 5 0 12 -24 16 -52z m-765 23 c-13 -25 -13 -34 0 -26 12
8 13 -15 1 -34 -8 -12 -14 -13 -35 -3 -29 13 -35 32 -11 32 9 0 21 11 27 25 6
14 15 25 20 25 5 0 4 -9 -2 -19z m845 -31 c-3 -5 -1 -10 6 -10 8 0 8 -4 -1
-15 -7 -8 -10 -25 -6 -39 8 -33 -21 -45 -33 -13 -13 35 -6 70 15 78 26 10 26
10 19 -1z m-630 -10 c3 -5 19 -10 36 -10 30 0 34 -6 20 -28 -5 -9 -17 -11 -37
-6 -26 7 -28 6 -15 -9 12 -15 11 -17 -7 -17 -13 0 -19 5 -17 13 4 8 -7 12 -32
13 -50 2 -123 22 -123 34 0 5 35 11 78 13 42 1 80 4 84 5 4 1 10 -2 13 -8z
m275 -14 c19 -13 49 -26 66 -30 29 -7 30 -9 30 -59 -1 -29 -5 -55 -10 -59 -18
-12 -34 4 -32 33 3 44 -19 69 -59 69 -36 0 -56 17 -35 30 8 5 5 9 -10 13 -12
3 -19 10 -15 16 10 17 27 13 65 -13z m-76 -3 c2 -10 7 -37 11 -59 6 -40 5 -41
-26 -48 -64 -12 -89 -8 -89 17 0 12 -3 39 -6 59 -7 40 -15 36 88 46 9 1 19 -6
22 -15z m-809 -36 c-1 -15 4 -27 10 -27 22 0 78 -68 71 -86 -6 -16 -7 -16 -20
1 -10 14 -21 16 -64 10 -29 -4 -52 -12 -52 -17 0 -6 -7 -5 -16 3 -14 11 -14
14 4 28 35 28 55 69 48 97 -5 19 -3 25 6 22 7 -3 13 -17 13 -31z m470 12 c22
-7 49 -19 60 -26 11 -7 36 -13 56 -13 50 0 103 -11 90 -19 -10 -7 -164 3 -227
14 -26 4 -33 11 -36 36 -3 19 -1 28 6 25 6 -3 29 -10 51 -17z m-94 -6 c18 -5
21 -57 5 -81 -4 -7 -6 -16 -3 -19 13 -12 -57 -63 -105 -78 -80 -23 -81 -23
-102 49 -10 35 -24 77 -32 92 -16 31 -17 29 14 38 16 5 22 3 22 -8 0 -21 48
-56 78 -56 31 0 72 36 72 63 0 14 4 17 18 12 9 -4 24 -9 33 -12z m689 5 c0
-23 -16 -39 -32 -33 -12 5 -14 1 -11 -19 6 -32 -6 -118 -15 -112 -4 2 -6 40
-4 84 4 85 1 81 55 91 4 0 7 -5 7 -11z m123 -124 c-28 -21 -32 -17 -22 18 5
18 9 46 10 63 0 26 2 23 15 -18 14 -46 14 -50 -3 -63z m-624 45 c64 -1 65 -1
36 -14 -43 -20 -78 -18 -130 7 -54 26 -61 45 -9 23 20 -8 66 -15 103 -16z
m359 -8 c0 -22 3 -44 6 -50 4 -5 -5 -18 -20 -27 -20 -13 -52 -18 -142 -20 -96
-2 -118 -6 -120 -18 -2 -9 2 -16 8 -16 6 0 8 -5 4 -11 -5 -8 -9 -8 -14 1 -5 9
-9 9 -14 1 -4 -6 -24 -11 -44 -11 -20 0 -52 -4 -71 -10 -23 -6 -40 -6 -55 2
-11 7 -27 12 -34 13 -15 0 -54 90 -44 99 12 13 33 5 30 -11 -2 -10 4 -19 14
-21 14 -3 16 1 11 15 -3 10 -12 25 -20 34 -12 14 -12 17 2 23 25 9 42 7 26 -3
-10 -6 -1 -12 30 -18 54 -11 129 -5 129 11 0 6 9 0 20 -14 l21 -25 -7 27 c-4
21 -1 27 16 33 12 4 24 4 27 1 4 -3 1 -6 -5 -6 -7 0 -12 -4 -12 -10 0 -5 18
-10 41 -10 55 0 180 31 173 42 -3 5 -12 7 -20 4 -7 -3 -16 -1 -19 4 -4 6 13
10 39 10 l45 0 -1 -39z m-870 -61 c3 -15 -3 -29 -14 -37 -23 -17 -78 -17 -92
0 -16 19 1 39 29 34 13 -2 18 -2 12 0 -20 7 -15 23 7 23 11 0 20 -4 20 -10 0
-5 5 -10 11 -10 6 0 8 7 5 16 -4 10 -1 14 6 12 7 -3 15 -15 16 -28z m311 -56
c-22 -27 -36 -79 -28 -102 6 -16 4 -22 -5 -22 -7 0 -19 -7 -26 -15 -18 -22
-27 -19 -34 11 -5 17 -18 30 -37 37 -25 10 -29 16 -27 41 3 27 8 31 55 41 29
7 62 19 75 28 28 18 47 5 27 -19z m583 16 c15 0 1 -44 -27 -86 -14 -20 -25
-43 -25 -50 0 -8 -7 -14 -15 -14 -11 0 -15 11 -15 35 0 28 5 38 23 45 18 7 19
9 3 9 -12 1 -16 6 -12 17 3 9 6 20 6 25 0 5 7 9 16 9 9 0 12 5 8 12 -5 8 -2 9
10 5 10 -4 22 -7 28 -7z m-82 -35 c0 -31 -3 -35 -25 -35 -32 0 -135 -39 -135
-51 0 -12 33 -12 46 0 11 11 97 42 102 37 2 -2 0 -20 -3 -40 -6 -31 -11 -36
-34 -36 -15 0 -44 -9 -66 -20 -28 -14 -42 -17 -51 -9 -19 15 -32 4 -44 -39
-16 -58 -12 -107 11 -136 25 -31 49 -33 80 -5 13 11 18 17 10 13 -9 -5 -12 -3
-7 4 4 7 18 9 33 6 19 -5 24 -4 19 5 -6 9 0 10 21 6 22 -5 25 -4 13 5 -12 9
-8 10 18 5 23 -5 32 -3 32 7 0 8 3 9 8 3 4 -6 23 -22 42 -35 35 -24 50 -39 50
-52 0 -9 -89 -22 -97 -15 -3 4 13 9 36 13 51 8 54 24 4 24 -22 0 -45 -7 -57
-19 -14 -13 -51 -24 -116 -34 -81 -13 -88 -15 -45 -16 46 -1 179 12 248 24 18
3 27 0 27 -9 0 -9 -19 -15 -57 -19 -32 -4 -89 -11 -128 -17 -38 -6 -89 -8
-112 -5 -41 6 -42 7 -49 53 -15 89 -9 184 14 242 12 30 22 48 22 40 0 -13 1
-13 10 0 15 23 12 30 -10 30 -11 0 -20 4 -20 9 0 5 -2 16 -5 23 -8 19 32 37
130 58 44 10 81 18 83 19 1 1 2 -15 2 -34z m-464 -24 c-5 -7 36 -12 114 -14
41 -2 60 -7 73 -22 18 -20 18 -20 12 3 -5 16 -2 22 9 22 19 0 36 -30 36 -64 0
-20 -5 -26 -21 -26 -15 0 -19 5 -15 15 3 8 1 15 -4 15 -6 0 -10 -6 -10 -13 0
-8 -9 -22 -20 -32 -17 -15 -31 -17 -97 -11 -93 7 -116 23 -101 68 7 20 7 33 0
40 -5 5 -7 18 -5 29 4 15 8 17 19 8 8 -6 12 -14 10 -18z m-163 -78 c24 -28 26
-58 2 -56 -10 1 -25 -7 -33 -18 -20 -29 -32 -23 -33 19 -1 25 -3 29 -6 13 -3
-12 -2 -34 1 -47 l6 -23 53 26 c28 14 63 34 77 44 20 13 29 15 41 6 16 -12 53
-76 47 -82 -6 -6 -141 -65 -142 -63 -1 2 -9 20 -19 41 -15 33 -20 36 -36 27
-16 -8 -23 -6 -35 12 -23 32 -20 58 11 90 31 33 44 35 66 11z m919 -54 c21
-41 22 -52 6 -47 -7 3 -16 18 -19 34 -5 24 -7 26 -14 11 -5 -13 -1 -28 14 -47
11 -16 21 -33 21 -38 0 -11 -89 -54 -100 -47 -5 3 -14 22 -20 43 -7 20 -18 47
-26 59 -13 21 -12 21 20 16 39 -6 90 21 81 44 -11 30 20 6 37 -28z m-152 -38
c23 -48 30 -75 25 -88 -7 -15 -9 -12 -15 17 -7 39 -34 95 -58 123 -13 15 -13
17 0 17 8 0 29 -30 48 -69z m-360 54 c0 -2 -8 -21 -17 -42 -10 -21 -18 -39
-18 -40 0 -1 -19 4 -40 12 -22 8 -59 14 -81 15 -28 0 -50 7 -65 21 -21 18 -21
20 -4 14 11 -3 47 -9 80 -12 46 -4 65 -2 76 9 21 21 69 37 69 23z m285 -1 c16
-4 75 -94 75 -114 0 -3 -26 -3 -57 0 -70 6 -154 -5 -194 -26 -33 -17 -34 -15
-42 54 -5 39 -3 44 24 57 53 28 147 42 194 29z m-237 -77 c1 -28 7 -67 13 -85
12 -37 10 -45 -10 -33 -15 9 -29 171 -15 171 5 0 10 -24 12 -53z m-201 8 c119
-23 123 -26 123 -88 0 -36 -4 -54 -12 -54 -7 -1 -76 -6 -153 -13 -136 -11
-222 -8 -315 11 -84 17 -91 20 -85 29 3 6 1 18 -5 27 -9 16 -10 15 -5 -4 5
-17 2 -23 -9 -23 -19 0 -21 20 -3 43 13 18 118 42 148 34 11 -3 17 -1 13 4 -3
5 1 9 9 9 10 0 17 -16 21 -45 8 -47 34 -75 71 -75 15 0 17 2 6 9 -15 10 -7 13
54 26 17 3 51 24 75 46 43 38 44 41 26 54 -10 8 -23 12 -27 9 -4 -2 -13 6 -20
18 -11 21 -11 22 4 9 9 -7 47 -19 84 -26z m-47 -29 c0 -8 -10 -13 -24 -13 -20
0 -72 -22 -168 -71 -5 -2 -8 1 -8 8 0 13 155 89 183 90 9 0 17 -6 17 -14z
m-40 -34 c0 -11 -46 -32 -68 -32 -12 0 38 30 66 39 1 1 2 -3 2 -7z m-321 -88
c104 -33 285 -36 489 -8 33 4 52 3 52 -3 0 -17 -186 -38 -335 -38 -130 0 -145
2 -212 28 -40 16 -73 33 -73 39 0 6 8 7 18 3 9 -4 37 -14 61 -21z m-23 -31
c-7 -8 -70 13 -73 24 -3 8 10 6 36 -4 23 -9 39 -18 37 -20z"/>
<path d="M2377 2923 c-12 -11 -7 -40 9 -53 12 -11 18 -10 31 3 15 15 15 18 -2
37 -19 21 -28 24 -38 13z"/>
<path d="M1660 2719 c29 -19 132 -70 136 -67 4 5 -130 78 -142 78 -5 0 -2 -5
6 -11z"/>
<path d="M1238 2586 c-61 -61 -108 -126 -91 -126 5 0 17 14 27 31 10 17 45 59
78 95 78 83 68 83 -14 0z"/>
<path d="M2186 2614 c-12 -12 -13 -20 -6 -35 12 -21 40 -25 58 -7 16 16 15 23
-4 42 -19 20 -29 20 -48 0z m44 -19 c0 -8 -9 -15 -20 -15 -11 0 -20 7 -20 15
0 8 9 15 20 15 11 0 20 -7 20 -15z"/>
<path d="M2295 2565 c-4 -16 -15 -38 -23 -47 -9 -11 -11 -18 -4 -18 18 0 44
47 40 72 -4 21 -5 21 -13 -7z"/>
<path d="M2268 2398 c34 -22 65 -38 68 -36 6 7 -105 78 -121 78 -5 0 18 -19
53 -42z"/>
<path d="M1556 2675 c-3 -9 -6 -24 -6 -33 0 -9 -6 -28 -13 -42 -7 -14 -12 -35
-11 -47 1 -25 -6 -29 -24 -11 -8 8 -15 8 -27 -2 -16 -13 -15 -15 1 -27 17 -12
17 -14 -1 -33 -27 -30 -11 -35 18 -6 15 14 32 26 39 26 9 0 14 15 15 42 1 24
7 64 14 91 11 47 8 75 -5 42z"/>
<path d="M1574 2525 c-18 -14 -18 -14 4 -8 12 3 22 1 22 -5 0 -6 -10 -12 -22
-15 -22 -3 -21 -4 7 -16 18 -8 25 -15 17 -18 -7 -3 -26 0 -42 7 -21 9 -33 9
-50 0 -21 -11 -21 -12 -3 -25 23 -18 33 -18 33 -1 0 11 9 13 34 9 36 -6 56 11
37 30 -7 7 -7 14 0 23 11 13 5 34 -10 34 -4 0 -16 -7 -27 -15z"/>
<path d="M2631 2542 c-18 -37 -47 -87 -63 -112 l-30 -45 27 25 c26 24 112 187
103 195 -2 2 -19 -26 -37 -63z"/>
<path d="M2590 2410 c0 -22 16 -43 30 -38 8 2 5 11 -9 28 -14 17 -20 20 -21
10z"/>
<path d="M1283 2260 c-46 -44 -47 -51 -2 -19 24 17 58 60 47 59 -2 0 -22 -18
-45 -40z"/>
<path d="M1390 2201 c0 -5 -7 -17 -16 -25 -14 -14 -14 -16 0 -16 8 0 20 9 26
19 13 25 13 31 0 31 -5 0 -10 -4 -10 -9z"/>
<path d="M1463 2193 c-7 -2 -13 -10 -13 -17 0 -25 -38 -49 -68 -43 -27 6 -29
4 -24 -21 4 -19 7 -22 10 -9 2 9 12 17 21 17 14 0 17 -6 13 -25 -2 -15 0 -25
7 -25 6 0 11 11 11 25 0 29 7 31 30 10 16 -14 18 -14 23 -1 4 9 2 15 -2 13 -5
-1 -9 1 -10 6 -3 21 0 28 9 22 6 -4 10 7 10 24 0 17 -1 31 -2 30 -2 0 -9 -3
-15 -6z"/>
<path d="M1532 2155 c4 -30 2 -45 -6 -44 -31 4 -37 -1 -22 -16 8 -9 13 -21 10
-29 -3 -7 2 -19 11 -26 13 -11 15 -9 16 11 3 49 4 54 18 54 8 0 16 6 19 13 2
7 -2 10 -10 7 -11 -4 -13 2 -10 28 3 26 -1 36 -13 41 -16 6 -17 1 -13 -39z"/>
<path d="M1477 1892 c-12 -18 1 -50 24 -63 12 -6 37 -8 59 -4 28 5 46 2 62 -9
31 -22 61 -20 89 5 21 18 21 20 4 14 -45 -16 -66 -17 -89 -1 -18 11 -37 14
-68 10 -46 -7 -62 3 -70 41 -2 14 -6 16 -11 7z"/>
<path d="M1288 1445 c-15 -34 0 -79 28 -83 34 -5 59 69 32 96 -20 20 -48 14
-60 -13z m52 0 c14 -16 2 -66 -18 -73 -20 -6 -36 42 -23 67 14 25 24 26 41 6z"/>
<path d="M820 924 c0 -14 66 -74 81 -74 5 0 -7 15 -28 32 -21 18 -41 37 -45
43 -5 6 -8 6 -8 -1z"/>
<path d="M2140 1220 c0 -5 7 -7 15 -4 8 4 15 1 15 -4 0 -6 -8 -12 -17 -15 -17
-4 -17 -4 0 -12 26 -11 44 9 27 30 -14 17 -40 20 -40 5z"/>
<path d="M2164 1135 c-4 -9 -2 -21 4 -27 15 -15 44 -1 40 19 -4 23 -36 29 -44
8z"/>
<path d="M1887 1073 c-13 -12 -7 -33 8 -33 8 0 15 9 15 20 0 20 -11 26 -23 13z"/>
<path d="M1994 1102 c-15 -11 -42 -74 -49 -114 -5 -34 -4 -37 27 -46 102 -31
139 -24 159 33 7 19 17 35 21 35 17 0 7 28 -14 42 -36 23 -134 57 -144 50z
m71 -47 c11 -1 30 -3 43 -4 12 0 22 -5 22 -11 0 -14 -57 -13 -62 1 -3 8 -10 5
-22 -6 -16 -16 -19 -16 -33 -2 -19 18 -8 41 16 32 9 -4 25 -8 36 -10z m-15
-50 c25 -7 43 -16 40 -21 -11 -20 -130 13 -130 37 0 7 8 9 23 4 12 -4 42 -13
67 -20z m-18 -54 l43 -9 -36 -1 c-19 -1 -44 6 -55 15 -10 8 -13 13 -7 9 7 -3
32 -10 55 -14z"/>
<path d="M1613 763 c-18 -7 -16 -42 3 -50 8 -3 21 0 27 7 9 10 9 11 0 6 -8 -4
-13 -1 -13 8 0 9 5 16 11 16 5 0 7 5 4 10 -7 11 -13 11 -32 3z"/>
<path d="M2453 643 c-24 -73 -23 -98 2 -40 18 45 27 48 15 7 -5 -18 -5 -30 1
-30 5 0 10 10 11 23 0 12 2 41 4 65 2 23 0 42 -4 42 -4 0 -17 -30 -29 -67z"/>
<path d="M2090 699 c0 -10 40 -32 47 -25 3 2 2 9 -1 14 -8 13 -46 22 -46 11z"/>
<path d="M2204 625 c-6 -15 2 -35 14 -35 4 0 12 11 19 25 10 22 9 25 -8 25
-11 0 -22 -7 -25 -15z"/>
<path d="M1820 590 c0 -14 30 -19 107 -19 40 0 77 -2 82 -5 5 -4 12 -2 16 3 3
6 13 7 23 4 13 -5 14 -3 5 7 -13 14 -233 24 -233 10z"/>
<path d="M1815 541 c-23 -5 -27 -8 -15 -16 21 -13 69 -7 87 10 13 13 11 15
-14 14 -15 -1 -41 -4 -58 -8z"/>
<path d="M1785 451 c3 -23 1 -29 -11 -24 -16 6 -18 -5 -4 -27 13 -21 28 -3 32
39 2 20 -2 36 -9 38 -8 3 -10 -6 -8 -26z"/>
<path d="M1645 315 c-22 -7 -33 -13 -24 -14 9 -1 19 -8 23 -16 3 -8 11 -15 18
-15 10 0 10 2 -1 9 -11 7 -10 11 6 20 11 5 23 8 25 5 3 -2 11 2 18 11 10 13 9
15 -6 14 -11 0 -37 -6 -59 -14z"/>
<path d="M1213 2938 c-49 -60 -107 -157 -99 -165 11 -11 48 21 132 115 51 59
91 108 89 110 -3 3 -11 0 -18 -6 -8 -7 -17 -8 -21 -4 -4 4 -6 3 -4 -3 4 -13
-27 -57 -34 -49 -3 3 -27 -24 -52 -59 -25 -36 -54 -71 -63 -78 -29 -24 27 67
85 137 29 35 49 64 44 64 -5 0 -31 -28 -59 -62z"/>
<path d="M1696 2984 c-12 -32 -5 -55 29 -93 87 -96 378 -197 465 -161 54 22
114 183 89 242 -6 15 -16 28 -21 28 -6 0 -7 -8 -3 -17 12 -28 18 -63 11 -63
-3 0 -37 16 -75 35 -37 19 -83 37 -102 40 -30 5 -31 4 -11 -5 21 -9 10 -17
-118 -81 -138 -69 -142 -70 -167 -54 -13 9 -23 18 -21 19 1 2 56 31 121 65
l118 61 -44 0 c-25 0 -47 -3 -49 -8 -1 -4 -36 -26 -77 -50 l-74 -42 6 33 c3
17 8 41 12 52 7 20 7 20 -9 0 -9 -11 -19 -37 -23 -57 -5 -32 -8 -36 -20 -26
-11 9 -14 25 -10 55 3 31 1 43 -8 43 -7 0 -16 -7 -19 -16z m502 -48 c69 -32
72 -39 41 -106 -24 -53 -54 -84 -75 -76 -9 4 -12 2 -8 -5 18 -29 -225 28 -278
65 -17 12 -7 20 114 83 73 39 135 70 138 69 3 0 33 -14 68 -30z"/>
<path d="M1192 2713 c12 -20 24 -31 26 -25 4 13 -26 62 -39 62 -4 0 1 -16 13
-37z"/>
<path d="M940 2294 c0 -13 58 -69 65 -63 2 3 -11 21 -30 39 -19 19 -35 29 -35
24z"/>
<path d="M406 764 c-17 -16 -21 -61 -8 -80 26 -40 95 -35 111 8 9 25 -3 68
-22 80 -20 13 -65 9 -81 -8z"/>
<path d="M540 771 c0 -5 33 -14 73 -21 39 -6 99 -21 132 -32 60 -20 189 -81
213 -100 8 -7 12 -7 12 1 0 12 -86 71 -103 71 -5 0 -22 9 -38 21 -16 11 -29
17 -29 13 0 -3 -6 -2 -13 4 -10 9 -79 23 -219 47 -16 2 -28 1 -28 -4z"/>
<path d="M996 698 c-9 -12 -16 -31 -16 -41 0 -24 44 -67 70 -67 29 0 60 35 60
69 0 56 -83 84 -114 39z"/>
<path d="M578 645 c-16 -35 5 -59 48 -52 22 4 37 1 45 -9 14 -17 61 -18 77 -2
15 15 16 48 2 48 -5 0 -10 -9 -10 -20 0 -25 -41 -28 -60 -4 -10 11 -23 14 -53
9 l-39 -7 7 31 c8 37 -1 41 -17 6z"/>
<path d="M280 635 c-19 -23 -8 -47 33 -68 76 -39 149 -39 142 0 -2 10 -4 21
-4 24 -1 4 -8 10 -17 13 -14 5 -15 4 -4 -9 16 -19 6 -45 -19 -45 -27 0 -102
35 -94 44 4 4 -1 4 -11 0 -13 -5 -17 -4 -13 3 4 6 1 13 -5 16 -7 2 3 7 23 11
20 3 49 2 64 -4 15 -6 30 -9 32 -6 2 2 -11 9 -29 14 -67 21 -86 22 -98 7z"/>
<path d="M946 514 c-9 -8 -16 -19 -16 -23 0 -20 40 -40 90 -45 37 -4 48 -3 35
3 -11 5 -34 10 -51 10 -17 1 -37 7 -43 15 -14 17 -5 43 17 49 16 4 16 5 0 6
-9 0 -24 -6 -32 -15z"/>
<path d="M1936 48 c-9 -35 -7 -48 7 -48 7 0 13 15 14 35 3 39 -11 48 -21 13z"/>
<path d="M1652 48 c-7 -7 -12 -20 -12 -30 0 -16 2 -17 14 -6 8 7 12 15 10 17
-2 2 1 10 7 18 14 16 -3 17 -19 1z"/>
<path d="M2185 46 c-38 -12 -39 -13 -17 -25 18 -10 22 -9 22 3 0 8 16 18 38
24 20 5 28 10 17 10 -11 0 -38 -6 -60 -12z"/>
</g>
</svg>
